<?xml version="1.0" encoding="UTF-8" standalone="no"?>
<svg
   xmlns:dc="http://purl.org/dc/elements/1.1/"
   xmlns:cc="http://creativecommons.org/ns#"
   xmlns:rdf="http://www.w3.org/1999/02/22-rdf-syntax-ns#"
   xmlns:svg="http://www.w3.org/2000/svg"
   xmlns="http://www.w3.org/2000/svg"
   xmlns:sodipodi="http://sodipodi.sourceforge.net/DTD/sodipodi-0.dtd"
   xmlns:inkscape="http://www.inkscape.org/namespaces/inkscape"
   fill="#000000"
   height="24"
   viewBox="0 0 24 24"
   width="24"
   id="svg2"
   version="1.1"
   inkscape:version="0.91 r13725"
   sodipodi:docname="launcher_icon.svg"
   inkscape:export-filename="/home/christopher/Documents/apps/calendarWeek/icon/ic_launcher_512px.png"
   inkscape:export-xdpi="1920"
   inkscape:export-ydpi="1920">
  <metadata
     id="metadata12">
    <rdf:RDF>
      <cc:Work
         rdf:about="">
        <dc:format>image/svg+xml</dc:format>
        <dc:type
           rdf:resource="http://purl.org/dc/dcmitype/StillImage" />
      </cc:Work>
    </rdf:RDF>
  </metadata>
  <defs
     id="defs10" />
  <sodipodi:namedview
     pagecolor="#ffffff"
     bordercolor="#666666"
     borderopacity="1"
     objecttolerance="10"
     gridtolerance="10"
     guidetolerance="10"
     inkscape:pageopacity="0"
     inkscape:pageshadow="2"
     inkscape:window-width="1920"
     inkscape:window-height="1013"
     id="namedview8"
     showgrid="false"
     inkscape:snap-others="false"
     inkscape:snap-global="true"
     inkscape:zoom="25.83886"
     inkscape:cx="10.490307"
     inkscape:cy="12.07415"
     inkscape:window-x="1920"
     inkscape:window-y="24"
     inkscape:window-maximized="1"
     inkscape:current-layer="svg2"
     showguides="true"
     inkscape:guide-bbox="true">
    <sodipodi:guide
       position="7.6241754,23.994867"
       orientation="0,1"
       id="guide3335" />
    <sodipodi:guide
       position="24.033568,-1.7802643"
       orientation="1,0"
       id="guide3337" />
    <sodipodi:guide
       position="13.351982,0"
       orientation="0,1"
       id="guide3339" />
    <sodipodi:guide
       position="0,6.0761195"
       orientation="1,0"
       id="guide3341" />
  </sodipodi:namedview>
  <path
     d="m -0.61922236,-0.27090978 c -9.32016774,0.99541194 15.94963736,0.002894 24.00000036,0 l 0,23.99999978 -24.00000036,0 z"
     id="path4"
     inkscape:connector-curvature="0"
     style="fill:none"
     sodipodi:nodetypes="ccccc" />
  <path
     d="m 15.907117,10.78909 c -1.759155,0.765915 -1.638755,0.05802 -0.995322,-1.0599998 l -5.1777634,4.8799998 -1.9906438,-2.12 -1.124678,1.06 2.9859658,3.18 z m 2.961797,-8.0599998 -1,0 0.122033,-1.99999998 -2,0 -0.122033,1.99999998 -8.0000008,0 0.1220339,-1.99999998 -2,0 -0.1220339,1.99999998 -1,0 c -1.11,0 -2.0449153,0.9 -2.1120339,2 L 1.892642,18.72909 c -0.067119,1.1 0.7679661,2 1.8779661,2 l 14.0000009,0 c 1.1,0 2.054915,-0.9 2.122033,-2 L 20.74688,4.7290902 c 0.06712,-1.1 -0.777966,-2 -1.877966,-2 z m -0.976272,15.9999998 -14,0 0.6711864,-10.9999998 14.0000006,0 z"
     id="path6"
     inkscape:connector-curvature="0"
     sodipodi:nodetypes="cccccccsccccccccsccsssssccccc" />
  <path
     d="m -26.811651,0.15737241 c -9.320168,0.99541199 15.949637,0.002894 24.0000003,0 l 0,23.99999959 -24.0000003,0 z"
     id="path4-3"
     inkscape:connector-curvature="0"
     style="fill:none"
     sodipodi:nodetypes="ccccc" />
</svg>
